<?xml version="1.0" encoding="UTF-8"?>
<svg width="24px" height="23px" viewBox="0 0 24 23" version="1.1" xmlns="http://www.w3.org/2000/svg" xmlns:xlink="http://www.w3.org/1999/xlink">
    <!-- Generator: Sketch 53.2 (72643) - https://sketchapp.com -->
    <title>bag</title>
    <desc>Created with Sketch.</desc>
    <g id="Welcome" stroke="none" stroke-width="1" fill="none" fill-rule="evenodd">
        <g id="카트-페이지-1" transform="translate(-148.000000, -139.000000)" fill="#3C3C42">
            <g id="bag" transform="translate(148.000000, 139.000000)">
                <g id="Shape">
                    <path d="M23.6,5.6 L23.6,0 L0.4,0 L0.4,5.6 L0,5.6 L0,20.5036 C0,21.5492 0.8508,22.4 1.8968,22.4 L22.1036,22.4 C23.1492,22.4 24,21.5492 24,20.5036 L24,5.6 L23.6,5.6 Z M22.6,5.6 L20.528,2.8376 L22.5656,0.8 L22.8,0.8 L22.8,5.6 L22.6,5.6 Z M4.4,5.6 L4.4,2.8 C4.4,2.7904 4.3952,2.7816 4.3944,2.772 C4.3924,2.7464 4.3864,2.7224 4.38,2.6972 C4.3756,2.6804 4.376,2.6632 4.3692,2.6472 C4.3656,2.6384 4.3584,2.6316 4.3544,2.6228 C4.3436,2.6008 4.3284,2.582 4.3132,2.562 C4.302,2.5476 4.2956,2.5296 4.2824,2.5168 L2.5656,0.8 L21.4344,0.8 L19.7176,2.5168 C19.7048,2.5296 19.698,2.5476 19.6868,2.562 C19.6716,2.582 19.6568,2.6008 19.646,2.6228 C19.6416,2.6316 19.6348,2.638 19.6308,2.6472 C19.624,2.6632 19.6244,2.6808 19.62,2.6972 C19.6132,2.7224 19.6072,2.746 19.6056,2.772 C19.6048,2.7816 19.6,2.7904 19.6,2.8 L19.6,5.6 L4.4,5.6 Z M2.4,5.6 L3.6,3.9996 L3.6,5.6 L2.4,5.6 Z M20.4,3.9996 L21.6,5.6 L20.4,5.6 L20.4,3.9996 Z M1.2,0.8 L1.4344,0.8 L3.472,2.8376 L1.4,5.6 L1.2,5.6 L1.2,0.8 Z M23.2,20.5036 C23.2,21.1084 22.708,21.6 22.1032,21.6 L1.8968,21.6 C1.292,21.6 0.8,21.1084 0.8,20.5036 L0.8,6.4 L23.2,6.4 L23.2,20.5036 Z" fill-rule="nonzero"></path>
                    <path d="M16.8,8.8 C16.5792,8.8 16.4,8.9788 16.4,9.2 L16.4,11.6 C16.4,14.026 14.426,16 12,16 C9.574,16 7.6,14.026 7.6,11.6 L7.6,9.2 C7.6,8.9788 7.4208,8.8 7.2,8.8 C6.9792,8.8 6.8,8.9788 6.8,9.2 L6.8,11.6 C6.8,14.4672 9.1328,16.8 12,16.8 C14.8672,16.8 17.2,14.4672 17.2,11.6 L17.2,9.2 C17.2,8.9788 17.0208,8.8 16.8,8.8 Z" fill-rule="nonzero"></path>
                    <path d="M8,9.2 C8,9.4212 8.1792,9.6 8.4,9.6 C8.6208,9.6 8.8,9.4212 8.8,9.2 C8.8,8.3176 8.0824,7.6 7.2,7.6 C6.3176,7.6 5.6,8.3176 5.6,9.2 C5.6,9.4212 5.7792,9.6 6,9.6 C6.2208,9.6 6.4,9.4212 6.4,9.2 C6.4,8.7588 6.7588,8.4 7.2,8.4 C7.6412,8.4 8,8.7588 8,9.2 Z" fill-rule="nonzero"></path>
                    <path d="M16.8,7.6 C15.9176,7.6 15.2,8.3176 15.2,9.2 C15.2,9.4212 15.3792,9.6 15.6,9.6 C15.8208,9.6 16,9.4212 16,9.2 C16,8.7588 16.3588,8.4 16.8,8.4 C17.2412,8.4 17.6,8.7588 17.6,9.2 C17.6,9.4212 17.7792,9.6 18,9.6 C18.2208,9.6 18.4,9.4212 18.4,9.2 C18.4,8.3176 17.6824,7.6 16.8,7.6 Z" fill-rule="nonzero"></path>
                </g>
            </g>
        </g>
    </g>
</svg>