<?xml version="1.0" encoding="UTF-8"?>
<svg width="24px" height="20px" viewBox="0 0 24 20" version="1.1" xmlns="http://www.w3.org/2000/svg" xmlns:xlink="http://www.w3.org/1999/xlink">
    <!-- Generator: Sketch 53.2 (72643) - https://sketchapp.com -->
    <title>cart_black</title>
    <desc>Created with Sketch.</desc>
    <g id="Welcome" stroke="none" stroke-width="1" fill="none" fill-rule="evenodd">
        <g id="맥주-목록-페이지-1" transform="translate(-279.000000, -16.000000)" fill="#6E6E78" fill-rule="nonzero">
            <g id="Header">
                <g id="cart_black" transform="translate(279.540009, 16.194603)">
                    <path d="M4.49201294,3.07672119 L4.17203394,1.15377045 L3.02210939,1.15377045 C2.85019759,0.492275391 2.25331368,0 1.5383606,0 C0.689954727,0 -3.19744231e-14,0.689954727 -3.19744231e-14,1.5383606 C-3.19744231e-14,2.38676646 0.689954727,3.07672119 1.5383606,3.07672119 C2.25331368,3.07672119 2.85019759,2.5844458 3.02210939,1.92295074 L3.51976904,1.92295074 L3.71206412,3.07672119 L3.70129559,3.07672119 L3.78667461,3.52323035 L3.78667461,3.52438412 C3.78667461,3.52438412 3.78667461,3.52438412 3.78667461,3.52438412 L4.7708408,8.66789278 L5.17235291,10.7685242 L5.1727375,10.7685242 L5.68885748,13.4664241 C4.739689,13.5379578 3.94858706,14.2679099 3.85513165,15.187465 C3.80051985,15.7278141 3.9782005,16.2689325 4.34279196,16.6712138 C4.70776801,17.0750334 5.22773389,17.3065567 5.76846764,17.3065567 L6.53764794,17.3065567 C6.53764794,18.5791655 7.57258003,19.6140976 8.84518884,19.6140976 C10.1177976,19.6140976 11.1527297,18.5791655 11.1527297,17.3065567 L15.3832214,17.3065567 C15.3832214,18.5791655 16.4181535,19.6140976 17.6907623,19.6140976 C18.9633711,19.6140976 19.9983032,18.5791655 19.9983032,17.3065567 L21.5366637,17.3065567 C21.7493421,17.3065567 21.9212539,17.1346449 21.9212539,16.9219666 C21.9212539,16.7092882 21.7493421,16.5373764 21.5366637,16.5373764 L19.8636966,16.5373764 C19.5460251,15.6424351 18.6933888,14.9990158 17.6907623,14.9990158 C16.6881357,14.9990158 15.8354994,15.6424351 15.5178279,16.5373764 L11.0181232,16.5373764 C10.7004517,15.6424351 9.84781535,14.9990158 8.84518884,14.9990158 C7.84256232,14.9990158 6.98992596,15.6424351 6.67225449,16.5373764 L5.76885223,16.5373764 C5.44502733,16.5373764 5.13350931,16.3981548 4.91352374,16.1554784 C4.69161523,15.9097253 4.5873913,15.5935922 4.62085064,15.2647676 C4.67930834,14.6844211 5.21542701,14.2302201 5.84115518,14.2302201 L6.14152009,14.2302201 C6.14921189,14.2302201 6.15613451,14.2302201 6.1645955,14.2302201 L8.52136393,14.2294509 L12.6914749,14.2279126 L12.6914749,14.227528 L15.4393715,14.2267588 L19.6140976,14.2259896 L19.6140976,14.225605 L21.1616884,14.2252204 C22.2196959,14.2252204 23.080024,13.3648923 23.080024,12.3072694 L23.080024,3.07210611 L4.49201294,3.07672119 Z M1.5383606,2.30754089 C1.11415766,2.30754089 0.769180298,1.96256353 0.769180298,1.5383606 C0.769180298,1.11415766 1.11415766,0.769180298 1.5383606,0.769180298 C1.96256353,0.769180298 2.30754089,1.11415766 2.30754089,1.5383606 C2.30754089,1.96256353 1.96256353,2.30754089 1.5383606,2.30754089 Z M17.6911469,15.7681961 C18.5395527,15.7681961 19.2295074,16.4581508 19.2295074,17.3065567 C19.2295074,18.1549626 18.5395527,18.8449173 17.6911469,18.8449173 C16.842741,18.8449173 16.1527863,18.1549626 16.1527863,17.3065567 C16.1527863,16.4581508 16.842741,15.7681961 17.6911469,15.7681961 Z M8.84557343,15.7681961 C9.69397929,15.7681961 10.383934,16.4581508 10.383934,17.3065567 C10.383934,18.1549626 9.69397929,18.8449173 8.84557343,18.8449173 C7.99716756,18.8449173 7.30721283,18.1549626 7.30721283,17.3065567 C7.30721283,16.4581508 7.99716756,15.7681961 8.84557343,15.7681961 Z M22.3112283,6.53803253 L19.6140976,6.53803253 L19.6140976,3.841671 L22.3112283,3.84090182 L22.3112283,6.53803253 Z M16.1527863,13.4575785 L16.1527863,10.7689088 L18.8449173,10.7689088 L18.8449173,13.4568093 L16.1527863,13.4575785 Z M16.1527863,9.99934387 L16.1527863,7.30721283 L18.8449173,7.30721283 L18.8449173,9.99934387 L16.1527863,9.99934387 Z M9.23016357,13.4595014 L9.23016357,10.7685242 L11.9222946,10.7685242 L11.9222946,13.4587323 L9.23016357,13.4595014 Z M9.23016357,9.99934387 L9.23016357,7.30721283 L11.9222946,7.30721283 L11.9222946,9.99934387 L9.23016357,9.99934387 Z M5.2938834,7.30721283 L8.46098328,7.30721283 L8.46098328,9.99934387 L5.8092342,9.99934387 L5.2938834,7.30721283 Z M18.8449173,6.53803253 L16.1527863,6.53803253 L16.1527863,3.84590149 L18.8449173,3.84590149 L18.8449173,6.53803253 Z M15.383606,6.53803253 L12.6914749,6.53803253 L12.6914749,3.84359395 L15.383606,3.84282477 L15.383606,6.53803253 Z M11.9222946,3.84590149 L11.9222946,6.53803253 L9.23016357,6.53803253 L9.23016357,3.84590149 L11.9222946,3.84590149 Z M12.6914749,7.30721283 L15.383606,7.30721283 L15.383606,9.99934387 L12.6914749,9.99934387 L12.6914749,7.30721283 Z M19.6140976,7.30721283 L22.3062286,7.30721283 L22.3062286,9.99934387 L19.6140976,9.99934387 L19.6140976,7.30721283 Z M8.46098328,3.84513231 L8.46098328,6.53841712 L5.14658537,6.53841712 L4.63123457,3.84628608 L8.46098328,3.84513231 Z M5.95614764,10.7685242 L8.46098328,10.7685242 L8.46098328,13.4595014 L6.47149844,13.4602706 L5.95614764,10.7685242 Z M12.6914749,10.7685242 L15.383606,10.7685242 L15.383606,13.4575785 L12.6914749,13.4583477 L12.6914749,10.7685242 Z M21.1616884,13.4560401 L19.6140976,13.4564247 L19.6140976,10.7685242 L22.3112283,10.7685242 L22.3112283,12.3068848 C22.3112283,12.9406893 21.7954929,13.4560401 21.1616884,13.4560401 Z" id="Shape"></path>
                </g>
            </g>
        </g>
    </g>
</svg>